<?xml version="1.0" encoding="UTF-8"?>
<svg version="1.1" viewBox="0 0 1924 1496" width="1280" height="1280" xmlns="http://www.w3.org/2000/svg">
<path transform="translate(0)" d="m0 0h1924v1496h-1924z" fill="#FEFEFE"/>
<path transform="translate(936,352)" d="m0 0h9l80 14 335 59 19 5 11 5 10 6 11 11 10 17 201 22 21 3 15 4 16 8 8 6 7 8 7 12 7 19 12 50 16 71 5 30 2 21v44l-4 27-5 24-5 16-7 19-9 20-13 25-9 13-12 16-9 11-13 15-9 9-8 7-14 11-13 10-19 12-23 12-28 12-20 6-39 9-508 109-27 6-11-1-492-106-69-15-23-6-25-10-16-8-15-8-24-16-13-10-10-9-15-14-10-10-9-11-10-13-12-18-14-25-11-23-7-19-8-30-4-23-2-23v-36l3-26 7-34 23-103 5-18 8-17 8-10h2v-2l10-7 14-7 15-4 20-3 168-18 35-4 8-15 11-12 11-7 14-6 22-5 363-64z" fill="#FEFEFE"/>
<path transform="translate(935,392)" d="m0 0h12l101 17 288 49 27 5 12 4 8 7 4 8 2 18 1 3 144 15 94 10 17 3 10 5 7 7 4 8 7 28 14 64 2 12-12 1h-1433l-52-1 17-73 7-28 6-12 9-8 11-4 21-3 172-18 50-5 8-1 2-17 3-9 3-5 10-7 17-4 346-58 40-7z" fill="#054D87"/>
<path transform="translate(221,883)" d="m0 0h1439l-1 4-12 17-12 14-7 7-6 7-8 7-11 10-18 13-21 13-25 12-19 7-30 8-93 20-182 39-224 48-41 9-12 1-93-20-453-97-27-7-22-8-25-12-21-13-16-12-13-11-12-11-12-13-11-14-12-17z" fill="#064D87"/>
<path transform="translate(936,352)" d="m0 0h9l80 14 335 59 19 5 11 5 10 6 11 11 10 17 201 22 21 3 15 4 16 8 8 6 7 8 7 12 7 19 12 50 16 71 5 30 2 21v44l-4 27-5 24-5 16-7 19-9 20-13 25-9 13-12 16-9 11-13 15-9 9-8 7-14 11-13 10-19 12-23 12-28 12-20 6-39 9-508 109-27 6-11-1-492-106-69-15-23-6-25-10-16-8-15-8-24-16-13-10-10-9-15-14-10-10-9-11-10-13-12-18-14-25-11-23-7-19-8-30-4-23-2-23v-36l3-26 7-34 23-103 5-18 8-17 8-10h2v-2l10-7 14-7 15-4 20-3 168-18 35-4 8-15 11-12 11-7 14-6 22-5 363-64zm1 25-72 13-346 61-16 5-8 6-7 9-4 11-1 11-25 2-201 21-18 3-12 4-9 6-8 9-5 11-5 18-12 53-14 63-4 22-2 21v26l3 31 5 25 8 26 11 26 12 23 12 18 11 14 11 13 5 6h2l2 4 15 14 16 12 27 18 25 13 23 9 24 7 50 11 464 99 41 9h11l144-31 377-80 40-9 19-6 25-10 22-11 19-12 18-13 14-12 17-17 9-11 10-12 13-19 14-27 8-17 8-24 7-29 4-27v-33l-3-29-9-46-10-44-11-50-5-15-5-10-7-8-14-7-12-3-44-5-192-20h-2l-1-10-5-13-7-8-8-6-15-5-330-58-90-16z" fill="#094E86"/>
<path transform="translate(1333,686)" d="m0 0 15 1 12 3 14 7 10 9 7 8 9 17 4 13 3 19v24l-3 18-6 18-8 14-12 13-13 8-13 4-7 1h-16l-16-3-15-8-11-10-7-10-7-14-5-16-2-12-1-17 3-26 5-17 8-14 9-12 12-9 11-5 11-3z" fill="#646668"/>
<path transform="translate(1172,686)" d="m0 0 15 1 12 3 14 7 10 9 6 7 8 14 4 10 3 12 2 18v17l-3 21-5 15-7 14-8 10-9 8-16 8-14 3h-17l-15-3-12-6-11-9-8-10-8-14-6-18-2-11-1-21 3-24 3-12 8-16 7-10 10-10 10-6 13-5z" fill="#646668"/>
<path transform="translate(722,682)" d="m0 0 4 2 11 10 11 9 13 12 11 9 12 11 8 7 14 12 15 13 12 11 7 5v-86l1-7h38l1 178-5-3-13-12-11-9-12-11-8-7-14-12-10-9-8-7-35-30-2-1v93h-39l-1-89z" fill="#646668"/>
<path transform="translate(561,686)" d="m0 0h18l14 2 12 4 11 6 5 4 1 2 1 43-4-2-10-8-16-8-16-3h-15l-13 4-10 6-7 6-7 11-3 10-1 7v9l4 17 6 10 5 6 10 6 11 4 11 2 15-1 14-4 13-7 11-9h1v43l-5 5-15 7-19 5-7 1h-12l-25-4-14-5-11-6-9-7-10-10-11-16-5-12-3-12-1-7v-17l3-19 5-14 7-12 9-11 14-11 16-8 17-5z" fill="#646668"/>
<path transform="translate(1063,687)" d="m0 0h6v172l-1 1h-38l-1-128-2-2-34 8h-5l-1-34 3-2 68-14z" fill="#646668"/>
<path transform="translate(1173,722)" d="m0 0 9 1 8 4 7 7 5 11 3 11 1 8v23l-3 14-5 12-7 9-9 5-10 1-10-4-7-7-6-12-4-16-1-8v-12l3-20 5-12 6-8 8-5z" fill="#FEFEFE"/>
<path transform="translate(1334,722)" d="m0 0 9 1 10 5 7 9 5 14 2 11v27l-3 13-8 16-8 7-9 3-10-1-9-6-7-9-5-13-2-11v-26l3-16 6-12 5-6 9-5z" fill="#FEFEFE"/>
<path transform="translate(654,748)" d="m0 0h34l1 13-1 99h-34l-1-1v-110z" fill="#646668"/>
<path transform="translate(665,686)" d="m0 0h11l8 4 6 7 2 6v7l-4 8-9 6-5 2-9-1-8-4-6-7-1-3v-11l6-9 6-4z" fill="#646668"/>
</svg>
